<svg width="24" height="24" viewBox="0 0 24 24" fill="none" xmlns="http://www.w3.org/2000/svg">
  <rect width="24" height="24" rx="4" fill="#3B82F6"/>
  <path d="M7 8C5.89543 8 5 8.89543 5 10V14C5 15.1046 5.89543 16 7 16H13C14.1046 16 15 15.1046 15 14V10C15 8.89543 14.1046 8 13 8H7Z" fill="white"/>
  <path d="M19.2929 9.29289C19.6834 8.90237 20.3166 8.90237 20.7071 9.29289C21.0976 9.68342 21.0976 10.3166 20.7071 10.7071L18.4142 13L20.7071 15.2929C21.0976 15.6834 21.0976 16.3166 20.7071 16.7071C20.3166 17.0976 19.6834 17.0976 19.2929 16.7071L16.2929 13.7071C15.9024 13.3166 15.9024 12.6834 16.2929 12.2929L19.2929 9.29289Z" fill="white"/>
</svg>
